<?xml version="1.0" encoding="UTF-8" standalone="no"?>
<!DOCTYPE svg PUBLIC "-//W3C//DTD SVG 1.1//EN" "http://www.w3.org/Graphics/SVG/1.1/DTD/svg11.dtd">
<svg version="1.1" xmlns="http://www.w3.org/2000/svg" xmlns:xlink="http://www.w3.org/1999/xlink" preserveAspectRatio="xMidYMid meet" viewBox="0 0 640 640" width="640" height="640"><defs><path d="M100 40C66.86 40 40 66.86 40 100C40 144 40 496 40 540C40 573.14 66.86 600 100 600C111.44 600 168.63 600 271.56 600L271.56 409.61L192.81 409.61L192.81 320L271.56 320C271.56 279.02 271.56 256.25 271.56 251.7C271.56 174.01 317.81 131.1 388.65 131.1C422.58 131.1 458.05 137.15 458.05 137.15C458.05 142.23 458.05 167.65 458.05 213.4C434.6 213.4 421.57 213.4 418.96 213.4C380.45 213.4 368.44 237.3 368.44 261.81C368.44 265.69 368.44 285.09 368.44 320L454.41 320L440.66 409.61L368.44 409.61L368.44 600C471.38 600 528.56 600 540 600C573.14 600 600 573.14 600 540C600 496 600 144 600 100C600 66.86 573.14 40 540 40C452 40 144 40 100 40Z" id="aEG6GEaCx"></path></defs><g><g><g><use xlink:href="#aEG6GEaCx" opacity="1" fill="#6f1e88" fill-opacity="1"></use><g><use xlink:href="#aEG6GEaCx" opacity="1" fill-opacity="0" stroke="#000000" stroke-width="1" stroke-opacity="0"></use></g></g></g></g></svg>