<?xml version="1.0" encoding="UTF-8" standalone="no"?>
<!DOCTYPE svg PUBLIC "-//W3C//DTD SVG 1.1//EN" "http://www.w3.org/Graphics/SVG/1.1/DTD/svg11.dtd">
<svg version="1.1" xmlns="http://www.w3.org/2000/svg" xmlns:xlink="http://www.w3.org/1999/xlink" preserveAspectRatio="xMidYMid meet" viewBox="0 0 640 640" width="640" height="640"><defs><path d="M253.35 320.02C253.36 356.85 283.23 386.69 320.05 386.67C356.86 386.66 386.7 356.81 386.7 320C386.67 283.18 356.82 253.34 320 253.33C283.18 253.34 253.34 283.2 253.35 320.02ZM437.88 164.06C411.62 153.7 349.12 156.02 320 156.02C290.87 156.02 228.44 153.61 202.11 164.06C184.72 170.92 170.96 184.69 164.1 202.08C153.75 228.33 156.06 290.89 156.06 319.99C156.06 349.09 153.75 411.58 164.15 437.91C171.01 455.3 184.77 469.06 202.16 475.93C228.41 486.29 290.91 483.96 320.05 483.96C349.19 483.96 411.6 486.38 437.92 475.93C455.31 469.06 469.08 455.3 475.94 437.91C486.38 411.66 483.98 349.1 483.98 320C483.98 290.9 486.38 228.43 475.94 202.09C469.03 184.69 455.26 170.92 437.88 164.06ZM217.5 320C217.5 263.39 263.39 217.5 320 217.5C376.61 217.5 422.5 263.39 422.5 320C422.57 376.54 376.79 422.43 320.25 422.5C320.17 422.5 320.08 422.5 320 422.5C263.39 422.5 217.5 376.61 217.5 320ZM402.79 213.21C402.78 200 413.49 189.28 426.7 189.28C439.91 189.27 450.63 199.97 450.64 213.19C450.64 213.19 450.64 213.2 450.64 213.2C450.69 226.39 440.05 237.12 426.86 237.17C426.83 237.17 426.8 237.17 426.77 237.18C413.51 237.13 402.79 226.43 402.79 213.21ZM100 40C66.86 40 40 66.86 40 100C40 144 40 496 40 540C40 573.14 66.86 600 100 600C144 600 496 600 540 600C573.14 600 600 573.14 600 540C600 496 600 144 600 100C600 66.86 573.14 40 540 40C452 40 144 40 100 40ZM486.29 486.25C462.9 509.57 434.54 517.04 402.54 518.56C369.52 520.43 270.55 520.43 237.54 518.56C205.5 516.95 177.21 509.63 153.79 486.25C130.36 462.87 123 434.48 121.47 402.5C119.61 369.48 119.61 270.49 121.47 237.5C123.09 205.46 130.31 177.08 153.79 153.75C177.26 130.43 205.62 123.05 237.54 121.53C270.55 119.66 369.53 119.66 402.54 121.53C434.57 123.14 462.95 130.46 486.29 153.84C509.63 177.21 517.07 205.61 518.6 237.65C520.46 270.55 520.46 369.45 518.6 402.5C516.99 434.54 509.68 462.93 486.29 486.25Z" id="eZHt1B93y"></path></defs><g><g><g><use xlink:href="#eZHt1B93y" opacity="1" fill="#6f1e88" fill-opacity="1"></use><g><use xlink:href="#eZHt1B93y" opacity="1" fill-opacity="0" stroke="#000000" stroke-width="1" stroke-opacity="0"></use></g></g></g></g></svg>